<?xml version="1.0" encoding="UTF-8" standalone="no"?>
<svg
   xmlns:dc="http://purl.org/dc/elements/1.1/"
   xmlns:cc="http://creativecommons.org/ns#"
   xmlns:rdf="http://www.w3.org/1999/02/22-rdf-syntax-ns#"
   xmlns:svg="http://www.w3.org/2000/svg"
   xmlns="http://www.w3.org/2000/svg"
   xmlns:sodipodi="http://sodipodi.sourceforge.net/DTD/sodipodi-0.dtd"
   xmlns:inkscape="http://www.inkscape.org/namespaces/inkscape"
   version="1.1"
   width="45"
   height="45"
   id="svg2"
   inkscape:version="0.91 r13725"
   sodipodi:docname="icon.svg"
   inkscape:export-filename="/home/jonas/Desktop/icon.png"
   inkscape:export-xdpi="512"
   inkscape:export-ydpi="512">
  <metadata
     id="metadata20">
    <rdf:RDF>
      <cc:Work
         rdf:about="">
        <dc:format>image/svg+xml</dc:format>
        <dc:type
           rdf:resource="http://purl.org/dc/dcmitype/StillImage" />
        <dc:title></dc:title>
      </cc:Work>
    </rdf:RDF>
  </metadata>
  <defs
     id="defs18" />
  <sodipodi:namedview
     pagecolor="#ffffff"
     bordercolor="#666666"
     borderopacity="1"
     objecttolerance="10"
     gridtolerance="10"
     guidetolerance="10"
     inkscape:pageopacity="0"
     inkscape:pageshadow="2"
     inkscape:window-width="1855"
     inkscape:window-height="1056"
     id="namedview16"
     showgrid="false"
     inkscape:zoom="8"
     inkscape:cx="-12.717152"
     inkscape:cy="14.839977"
     inkscape:window-x="65"
     inkscape:window-y="24"
     inkscape:window-maximized="1"
     inkscape:current-layer="svg2" />
  <style
     id="style3209"
     type="text/css">
	.st0{fill:#E0E0D1;}
	.st1{opacity:0.2;}
	.st2{fill:#231F20;}
	.st3{fill:#C75C5C;}
	.st4{fill:#4F5D73;}
</style>
  <rect
     style="fill:#ffffff;fill-opacity:1;stroke:none;stroke-width:1;stroke-linecap:square;stroke-miterlimit:4;stroke-dasharray:none;stroke-dashoffset:0;stroke-opacity:1"
     id="rect3410"
     width="44.994816"
     height="44.975468"
     x="0"
     y="0.024532318" />
  <circle
     style="fill:#e0e0d1;fill-opacity:1;stroke:none;stroke-width:1;stroke-linecap:square;stroke-miterlimit:4;stroke-dasharray:none;stroke-dashoffset:0;stroke-opacity:1"
     id="path3389"
     cx="29.274397"
     cy="29.293163"
     r="15.640244" />
  <g
     transform="translate(0.83900501,-1.0558752)"
     style="opacity:1;fill:none;fill-opacity:1;fill-rule:evenodd;stroke:#000000;stroke-width:1.5;stroke-linecap:round;stroke-linejoin:round;stroke-miterlimit:4;stroke-dasharray:none;stroke-opacity:1"
     id="g4-3-2">
    <path
       inkscape:connector-curvature="0"
       d="m 22,10 c 10.5,1 16.5,8 16,29 l -23,0 c 0,-9 10,-6.5 8,-21"
       style="fill:#000000;stroke:#000000"
       id="path6-6-7" />
    <path
       inkscape:connector-curvature="0"
       d="m 24,18 c 0.38,2.91 -5.55,7.37 -8,9 -3,2 -2.82,4.34 -5,4 -1.042,-0.94 1.41,-3.04 0,-3 -1,0 0.19,1.23 -1,2 -1,0 -4.003,1 -4,-4 0,-2 6,-12 6,-12 0,0 1.89,-1.9 2,-3.5 -0.73,-0.994 -0.5,-2 -0.5,-3 1,-1 3,2.5 3,2.5 l 2,0 c 0,0 0.78,-1.992 2.5,-3 1,0 1,3 1,3"
       style="fill:#000000;stroke:#000000"
       id="path8-7-0" />
    <path
       inkscape:connector-curvature="0"
       d="m 9.5,25.5 a 0.5,0.5 0 1 1 -1,0 0.5,0.5 0 1 1 1,0 z"
       style="fill:#ffffff;stroke:#ffffff"
       id="path10-5-9" />
    <path
       inkscape:connector-curvature="0"
       d="m 15,15.5 a 0.5,1.5 0 1 1 -1,0 0.5,1.5 0 1 1 1,0 z"
       transform="matrix(0.866,0.5,-0.5,0.866,9.693,-5.173)"
       style="fill:#ffffff;stroke:#ffffff"
       id="path12-3-3" />
    <path
       inkscape:connector-curvature="0"
       d="M 24.55,10.4 24.1,11.85 24.6,12 c 3.15,1 5.65,2.49 7.9,6.75 2.25,4.26 3.25,10.31 2.75,20.25 l -0.05,0.5 2.25,0 L 37.5,39 C 38,28.94 36.62,22.15 34.25,17.66 31.88,13.17 28.46,11.02 25.06,10.5 l -0.51,-0.1 z"
       style="fill:#ffffff;stroke:none"
       id="path14-5-6" />
  </g>
  <g
     id="g3242"
     transform="translate(50.367103,-6.4607775)">
    <g
       id="Layer_1"
       transform="translate(8.49427,4.9886983)">
      <g
         id="g3216"
         class="st1"
         style="opacity:0.2"
         transform="matrix(0.42276042,0,0,0.42276042,-42.201691,17.12337)">
        <path
           id="path3218"
           d="m 32,16 c 9.9,0 18,8.1 18,18 0,9.9 -8.1,18 -18,18 -9.9,0 -18,-8.1 -18,-18 0,-9.9 8.1,-18 18,-18 z m 0,-4 C 19.8,12 10,21.8 10,34 10,46.2 19.8,56 32,56 44.2,56 54,46.2 54,34 54,21.8 44.2,12 32,12 l 0,0 z"
           class="st2"
           inkscape:connector-curvature="0"
           style="fill:#231f20" />
      </g>
      <path
         style="fill:#c75c5c"
         inkscape:connector-curvature="0"
         class="st3"
         d="m -28.673358,23.042016 c 4.185329,0 7.609688,3.424359 7.609688,7.609687 0,4.185329 -3.424359,7.609688 -7.609688,7.609688 -4.185328,0 -7.609687,-3.424359 -7.609687,-7.609688 0,-4.185328 3.424359,-7.609687 7.609687,-7.609687 m 0,-1.691042 c -5.157677,0 -9.300729,4.143052 -9.300729,9.300729 0,5.157678 4.143052,9.30073 9.300729,9.30073 5.157678,0 9.30073,-4.143052 9.30073,-9.30073 0,-5.157677 -4.143052,-9.300729 -9.30073,-9.300729 l 0,0 z"
         id="path3222" />
      <g
         id="g3224"
         class="st1"
         style="opacity:0.2"
         transform="matrix(0.42276042,0,0,0.42276042,-42.201691,17.12337)">
        <g
           id="g3226">
          <path
             id="path3228"
             d="m 40,44 c -0.5,0 -1,-0.2 -1.4,-0.6 L 30,34.8 30,26 c 0,-1.1 0.9,-2 2,-2 1.1,0 2,0.9 2,2 l 0,7.2 7.4,7.4 c 0.8,0.8 0.8,2 0,2.8 C 41,43.8 40.5,44 40,44 Z"
             class="st2"
             inkscape:connector-curvature="0"
             style="fill:#231f20" />
        </g>
      </g>
      <g
         id="g3230"
         transform="matrix(0.42276042,0,0,0.42276042,-42.201691,17.12337)">
        <path
           id="path3232"
           d="m 40,42 c -0.5,0 -1,-0.2 -1.4,-0.6 L 30,32.8 30,24 c 0,-1.1 0.9,-2 2,-2 1.1,0 2,0.9 2,2 l 0,7.2 7.4,7.4 c 0.8,0.8 0.8,2 0,2.8 C 41,41.8 40.5,42 40,42 Z"
           class="st4"
           inkscape:connector-curvature="0"
           style="fill:#4f5d73" />
      </g>
    </g>
    <g
       id="Layer_2" />
  </g>
</svg>
